<svg width="48" height="48" viewBox="0 0 48 48" fill="none" xmlns="http://www.w3.org/2000/svg">
<path d="M14 3.00017L44 3V7H14V3.00017Z"/>
<path d="M14 11H44V16H14V11Z"/>
<path d="M14 20.0003L18 20V23.9995L14 24V20.0003Z"/>
<path d="M14 29H18V33H14V29Z"/>
<path d="M14 37H18V42H14V37Z"/>
<path d="M1 3H10V7H1V3Z"/>
<path d="M1 11H10V16H1V11Z"/>
<path d="M1 20H10V24H1V20Z"/>
<path d="M1 29H10V33H1V29Z"/>
<path d="M1 37H10V42H1V37Z"/>
<path d="M47 44L40 37" stroke-width="2.66667"/>
<path d="M33.5 20C30.7152 20 28.0445 21.159 26.0754 23.2218C24.1063 25.2847 23 28.0826 23 31C23 32.4445 23.2716 33.875 23.7993 35.2096C24.3269 36.5442 25.1004 37.7567 26.0754 38.7782C27.0504 39.7996 28.2079 40.6098 29.4818 41.1626C30.7557 41.7154 32.1211 42 33.5 42C34.8789 42 36.2443 41.7154 37.5182 41.1626C38.7921 40.6098 39.9496 39.7996 40.9246 38.7782C41.8996 37.7567 42.6731 36.5442 43.2007 35.2096C43.7284 33.875 44 32.4445 44 31C44 28.0826 42.8937 25.2847 40.9246 23.2218C38.9555 21.159 36.2848 20 33.5 20ZM33.5 24.3999C34.3273 24.3999 35.1466 24.5706 35.9109 24.9023C36.6753 25.234 37.3698 25.72 37.9548 26.3329C38.5398 26.9458 39.0039 27.6734 39.3205 28.4741C39.6371 29.2749 39.8 30.1333 39.8 31C39.8 32.7504 39.1362 34.4292 37.9547 35.6669C36.7733 36.9046 35.1708 37.5999 33.5 37.5999C31.8291 37.5999 30.2267 36.9046 29.0453 35.6669C27.8638 34.4292 27.2 32.7504 27.2 31C27.2 30.1333 27.3629 29.2749 27.6795 28.4741C27.9961 27.6734 28.4602 26.9458 29.0452 26.3329C29.6302 25.72 30.3247 25.234 31.0891 24.9023C31.8534 24.5706 32.6727 24.3999 33.5 24.3999Z"/>
<path d="M14 3H10V7H14V3Z" fill-opacity="0.376471"/>
<path d="M14 11H10V16H14V11Z" fill-opacity="0.376471"/>
<path d="M14 20H10V24H14V20Z" fill-opacity="0.376471"/>
<path d="M14 29H10V33H14V29Z" fill-opacity="0.376471"/>
<path d="M14 37H10V42H14V37Z" fill-opacity="0.376471"/>
</svg>
